<?xml version="1.0" encoding="utf-8"?>
<!-- Generator: Adobe Illustrator 16.0.0, SVG Export Plug-In . SVG Version: 6.00 Build 0)  -->
<!DOCTYPE svg PUBLIC "-//W3C//DTD SVG 1.1//EN" "http://www.w3.org/Graphics/SVG/1.1/DTD/svg11.dtd">
<svg version="1.1" id="Layer_1" xmlns="http://www.w3.org/2000/svg" xmlns:xlink="http://www.w3.org/1999/xlink" x="0px" y="0px"
	 width="126px" height="126px" viewBox="0 0 126 126" enable-background="new 0 0 126 126" xml:space="preserve">
<path d="M85.778,118.485c0-0.114-0.017-0.229-0.064-0.336l-8.561-19.638l-6.556-32.448c-0.014-0.068-0.05-0.125-0.079-0.186v-9.629
	h8.613v1.554h-1.321c-0.558,0-1.011,0.454-1.011,1.012s0.453,1.011,1.011,1.011h1.321v0.927h-1.321
	c-0.558,0-1.011,0.453-1.011,1.011s0.453,1.011,1.011,1.011h1.321v2.782c0,0.373,0.301,0.674,0.674,0.674h3.371
	c0.373,0,0.675-0.301,0.675-0.674v-2.782h1.546c0.558,0,1.011-0.453,1.011-1.011s-0.453-1.011-1.011-1.011h-1.546v-0.927h1.546
	c0.558,0,1.011-0.454,1.011-1.011s-0.453-1.012-1.011-1.012h-1.546v-1.554h3.09c0.386,0,0.722-0.262,0.817-0.637
	c0.095-0.374-0.077-0.765-0.417-0.948l-16.823-9.083V33.722h8.613v1.554h-1.321c-0.558,0-1.011,0.454-1.011,1.011
	c0,0.558,0.453,1.012,1.011,1.012h1.321v0.927h-1.321c-0.558,0-1.011,0.454-1.011,1.012s0.453,1.012,1.011,1.012h1.321v2.781
	c0,0.372,0.301,0.674,0.674,0.674h3.371c0.373,0,0.675-0.302,0.675-0.674V40.25h1.546c0.558,0,1.011-0.454,1.011-1.012
	s-0.453-1.012-1.011-1.012h-1.546v-0.927h1.546c0.558,0,1.011-0.454,1.011-1.012c0-0.557-0.453-1.011-1.011-1.011h-1.546v-1.554
	h3.09c0.386,0,0.722-0.262,0.817-0.636c0.095-0.374-0.077-0.765-0.417-0.948l-16.823-9.083v-6.214c0-0.137-0.041-0.262-0.099-0.377
	c-0.033-0.128-0.084-0.248-0.168-0.344L63.708,5.444c-0.159-0.259-0.442-0.41-0.748-0.401c-0.303,0.011-0.578,0.183-0.718,0.453
	l-5.62,10.788c-0.036,0.069-0.06,0.143-0.075,0.217c-0.047,0.104-0.076,0.219-0.076,0.341v12.936l-17.128,9.248
	c-0.34,0.183-0.511,0.574-0.417,0.948c0.094,0.374,0.431,0.636,0.817,0.636h3.09v1.554h-1.545c-0.558,0-1.012,0.454-1.012,1.012
	s0.454,1.012,1.012,1.012h1.545v0.927h-1.545c-0.558,0-1.012,0.454-1.012,1.012c0,0.557,0.454,1.011,1.012,1.011h1.545v2.781
	c0,0.373,0.302,0.675,0.674,0.675h3.371c0.373,0,0.674-0.302,0.674-0.675v-2.781h1.32c0.559,0,1.012-0.454,1.012-1.011
	c0-0.558-0.453-1.012-1.012-1.012h-1.32v-0.927h1.32c0.559,0,1.012-0.454,1.012-1.012s-0.453-1.012-1.012-1.012h-1.32v-1.554h8.883
	c0.012,0,0.023-0.006,0.035-0.007v25.457L48.907,98.5l-8.565,19.649c-0.047,0.108-0.065,0.222-0.065,0.336h-2.365v2.473h12.642
	v-2.473h-3.016L60.77,99.606h4.514l13.071,18.879h-2.909v2.473h12.642v-2.473H85.778z M85.397,61.426
	c0.185,0,0.336,0.151,0.336,0.337s-0.151,0.337-0.336,0.337h-7.587c-0.185,0-0.337-0.151-0.337-0.337s0.152-0.337,0.337-0.337
	H85.397z M85.397,58.476c0.185,0,0.336,0.151,0.336,0.337c0,0.186-0.151,0.337-0.336,0.337h-7.587c-0.185,0-0.337-0.152-0.337-0.337
	c0-0.186,0.152-0.337,0.337-0.337H85.397z M85.397,38.9c0.185,0,0.336,0.151,0.336,0.337s-0.151,0.337-0.336,0.337h-7.587
	c-0.185,0-0.337-0.151-0.337-0.337s0.152-0.337,0.337-0.337H85.397z M85.397,35.951c0.185,0,0.336,0.15,0.336,0.336
	c0,0.187-0.151,0.337-0.336,0.337h-7.587c-0.185,0-0.337-0.151-0.337-0.337c0-0.186,0.152-0.336,0.337-0.336H85.397z M48.874,45.787
	c0.186,0,0.338,0.151,0.338,0.338c0,0.186-0.152,0.336-0.338,0.336h-7.585c-0.186,0-0.337-0.151-0.337-0.336
	c0-0.187,0.151-0.338,0.337-0.338H48.874z M48.874,42.837c0.186,0,0.338,0.151,0.338,0.337s-0.152,0.337-0.338,0.337h-7.585
	c-0.186,0-0.337-0.151-0.337-0.337s0.151-0.337,0.337-0.337H48.874z M53.486,97.92l9.453-4.262l9.029,4.262H53.486z M52.875,88.909
	l8.461,3.994l-10.495,4.731L52.875,88.909z M68.833,63.917l-9.395-6.215l9.395-4.899V63.917z M58.157,47.483
	c0.038,0.025,0.075,0.051,0.119,0.07l9.878,4.083l-9.997,5.214V47.483z M60.009,46.81l8.824-5.463v9.111L60.009,46.81z
	 M68.833,39.476l-9.868-4.38l9.868-4.823V39.476z M68.833,28.015l-9.963-4.92l9.963-4.66V28.015z M67.255,17.684l-9.098,4.255
	v-4.255H67.255z M58.157,24.246l9.916,4.897l-9.916,4.846V24.246z M67.712,40.454l-9.534,5.903
	c-0.008,0.005-0.014,0.012-0.021,0.018V36.211L67.712,40.454z M58.157,58.472l10.454,6.916H58.157V58.472z M57.966,67.073h11.115
	l0.74,3.663H57.112L57.966,67.073z M65.072,83.27l6.717-2.792l1.25,6.189L65.072,83.27z M72.462,87.886l-9.51,4.288l-9.038-4.266
	l9.418-3.915L72.462,87.886z M63.339,82.529l-7.28-3.104l7.346-3.658l7.41,3.653L63.339,82.529z M64.922,75.013l5.235-2.609
	l1.166,5.765L64.922,75.013z M63.401,74.263l-4.419-2.178h8.793L63.401,74.263z M56.708,72.467l5.177,2.552l-6.529,3.251
	L56.708,72.467z M54.863,80.382l6.735,2.872l-8.199,3.408L54.863,80.382z M75.127,97.92l-10.573-4.99l8.937-4.029l1.823,9.019
	H75.127z M83.606,54.562H70.519v-7.066L83.606,54.562z M83.606,32.037H70.519v-7.066L83.606,32.037z M63.048,7.594l5.048,8.235
	h-9.337L63.048,7.594z M56.437,38.923H43.079l13.393-7.23v7.237C56.459,38.93,56.449,38.923,56.437,38.923z M46.07,117.643h-3.669
	l7.862-18.037h8.448L46.07,117.643z M75.792,99.606l7.863,18.037H79.82L67.333,99.606H75.792z"/>
</svg>
